<defs>
<font horiz-adv-x="476" ><font-face
    font-family="titillium-light-italic"
    units-per-em="1000"
    panose-1="0 0 4 0 0 0 0 0 0 0"
    ascent="750"
    descent="-250"
    alphabetic="0" />
<missing-glyph horiz-adv-x="223" />
<glyph unicode=" " glyph-name="space" horiz-adv-x="220" />
<glyph unicode="!" glyph-name="exclam" horiz-adv-x="196" d="M120 223L229 700H289L173 223H120ZM70 0L93 100H154L131 0H70Z" />
<glyph unicode="&quot;" glyph-name="quotedbl" horiz-adv-x="314" d="M323 474H269L320 695H377L323 474ZM261 474H207L258 695H315L261 474Z" />
<glyph unicode="#" glyph-name="numbersign" horiz-adv-x="560" d="M573 184H459L414 0H358L403 184H236L191 0H135L180 184H66L79 236H193L241 432H127L140 484H254L301 667H357L310 484H477L524 667H580L533 484H647L634 432H520L472 236H586L573 184ZM416 236L464
432H297L249 236H416Z" />
<glyph unicode="$" glyph-name="dollar" horiz-adv-x="560" d="M605 647L594 602Q541 611 487 616L391 363Q462 338 491 309T520 219Q520 113 457 52T286 -10Q274 -10 248 -8L206 -120H162L205 -5L96 12L107 60Q166 51 225 46L330 323Q260 347 230 376T199 463Q199
562 262 617T433 672Q437 672 447 672T462 671L505 785H552L507 666Q531 663 555 658T592 650L605 647ZM460 215Q460 254 442 272T370 310L268 43H290Q370 43 415 89T460 215ZM259 467Q259 431 279 413T350 376L442 619H429Q350 619 305 581T259 467Z" />
<glyph unicode="%" glyph-name="percent" horiz-adv-x="560" d="M297 658Q328 658 335 635T330 565Q318 516 300 493T250 469Q194 469 217 566Q229 613 248 635T297 658ZM166 6L510 706L554 694L210 -5L166 6ZM167 566Q150 495 169 460T239 425T326 460T381 565Q415
702 308 702T167 566ZM342 141Q376 277 483 277Q591 277 557 140Q540 70 503 35T415 0Q364 0 345 35T342 141ZM393 141Q369 44 425 44Q482 44 506 140Q518 186 511 209T472 233Q442 233 424 211T393 141Z" />
<glyph unicode="&amp;" glyph-name="ampersand" horiz-adv-x="633" d="M446 705Q580 705 580 589Q580 511 530 457T379 365L498 200Q536 262 560 338H619Q590 240 533 157L631 32L589 -6L496 113Q399 -10 262 -10Q166 -10 122 28T78 147Q78 248 126 308T286 410Q260
464 260 507Q260 599 309 652T446 705ZM269 44Q386 44 463 155L311 368Q217 334 179 283T141 151Q141 44 269 44ZM322 506Q322 451 354 404Q442 439 480 481T518 586Q518 653 443 653Q384 653 353 612T322 506Z" />
<glyph unicode="&apos;" glyph-name="quotesingle" horiz-adv-x="168" d="M219 474H165L216 695H273L219 474Z" />
<glyph unicode="(" glyph-name="parenleft" horiz-adv-x="226" d="M312 748H370Q361 734 346 710T294 612T227 465T174 293T150 109Q150 46 153 -12T160 -98L164 -124H108Q88 -40 88 109Q88 200 111 299T167 475T233 616T289 714L312 748Z" />
<glyph unicode=")" glyph-name="parenright" horiz-adv-x="225" d="M58 -118H0Q9 -104 24 -80T76 18T143 165T196 337T220 521Q220 584 217 642T210 728L206 754H262Q282 670 282 521Q282 430 259 331T203 155T137 14T81 -84L58 -118Z" />
<glyph unicode="*" glyph-name="asterisk" horiz-adv-x="411" d="M488 514H354L395 387L353 374L311 502L203 423L177 458L286 537L178 616L205 652L313 573L354 700L397 686L356 558H488V514Z" />
<glyph unicode="+" glyph-name="plus" horiz-adv-x="560" d="M114 223V279H308V480H365V279H561V223H365V20H308V223H114Z" />
<glyph unicode="," glyph-name="comma" horiz-adv-x="185" d="M47 -129H-2L92 100H158L47 -129Z" />
<glyph unicode="-" glyph-name="hyphen" horiz-adv-x="354" d="M109 240L123 296H369L355 240H109Z" />
<glyph unicode="." glyph-name="period" horiz-adv-x="172" d="M56 0L79 100H140L117 0H56Z" />
<glyph unicode="/" glyph-name="slash" horiz-adv-x="406" d="M99 -7L43 14L469 704L526 683L99 -7Z" />
<glyph unicode="0" glyph-name="zero" horiz-adv-x="560" d="M412 670Q509 670 559 622T609 479Q609 355 573 245T464 63T297 -10T153 38T103 177Q103 296 137 406T243 593T412 670ZM411 616Q352 616 303 573T225 463T181 324T165 184Q165 44 297 44Q356 44 405
84T483 189T529 327T546 474Q546 616 411 616Z" />
<glyph unicode="1" glyph-name="one" horiz-adv-x="560" d="M240 529L476 661H530L378 0H317L451 585L256 478L240 529Z" />
<glyph unicode="2" glyph-name="two" horiz-adv-x="560" d="M490 0H68L80 50L350 276Q446 356 491 410T537 519Q537 571 504 594T404 617Q369 617 323 612T246 600L217 594L223 643Q324 671 414 671Q599 671 599 527Q599 454 552 393T414 260L158 54H503L490 0Z" />
<glyph unicode="3" glyph-name="three" horiz-adv-x="560" d="M217 596L223 643Q320 670 418 670Q592 670 592 536Q592 404 452 351Q493 334 514 303T535 217Q535 113 460 52T269 -10Q227 -10 179 -2T102 16L75 24L89 71Q195 44 274 44Q358 44 415 90T473 213Q473
317 350 318H220L233 368L363 370Q419 370 474 414T529 522Q529 571 500 593T408 616Q368 616 320 611T244 601L217 596Z" />
<glyph unicode="4" glyph-name="four" horiz-adv-x="560" d="M368 -1L398 127H79L90 174L414 660H482L157 180H410L462 405H523L471 180H555L543 127H459L429 -1H368Z" />
<glyph unicode="5" glyph-name="five" horiz-adv-x="560" d="M255 660H627L615 606H293L216 367Q312 413 384 413Q555 413 555 271Q555 153 475 73T278 -8Q235 -8 184 0T102 16L72 23L88 73Q198 46 278 46Q367 46 429 109T492 263Q492 358 369 358Q336 358 294
347T226 324L200 312L150 321L255 660Z" />
<glyph unicode="6" glyph-name="six" horiz-adv-x="560" d="M631 651L613 600Q532 616 455 616Q412 616 374 600T309 560T260 502T225 435T200 366Q296 411 391 411Q479 411 522 370T566 255Q566 135 496 63T301 -10Q211 -10 163 48T115 215Q115 272 128 332T169
453T238 562T338 640T470 670Q505 670 545 665T608 656L631 651ZM373 356Q334 356 288 345T216 324L189 313Q178 280 178 214Q178 134 209 89T302 44Q399 44 451 99T503 241Q503 300 473 328T373 356Z" />
<glyph unicode="7" glyph-name="seven" horiz-adv-x="560" d="M221 605L234 660H628L605 560L209 -11L154 8L545 569L553 605H221Z" />
<glyph unicode="8" glyph-name="eight" horiz-adv-x="560" d="M440 671Q541 671 590 636T639 538T595 422T473 346Q529 325 549 294T570 219Q570 196 563 170T536 110T485 52T397 8T270 -10Q66 -10 66 127Q66 275 239 346Q193 369 177 394T160 461Q160 499 175
535T223 602T311 652T440 671ZM284 44Q342 44 387 61T456 104T493 158T506 210Q506 257 482 278T400 316H296Q227 297 180 254T132 136Q132 92 170 68T284 44ZM426 616Q321 616 272 572T222 465Q222 432 241 409T309 369H413Q446 377 479 393T542 444T572 520Q572
569 538 592T426 616Z" />
<glyph unicode="9" glyph-name="nine" horiz-adv-x="560" d="M78 11L99 65Q175 47 253 47Q444 47 507 290Q383 252 312 252Q218 252 177 300T153 447Q172 544 248 607T429 670Q537 670 574 587T579 348Q545 162 456 76T238 -10Q205 -10 165 -5T102 6L78 11ZM331
308Q361 308 408 317T488 335L521 344Q552 467 527 540T415 614Q342 614 286 570T215 450Q185 308 331 308Z" />
<glyph unicode=":" glyph-name="colon" horiz-adv-x="174" d="M134 338L157 438H218L195 338H134ZM56 0L79 100H140L117 0H56Z" />
<glyph unicode=";" glyph-name="semicolon" horiz-adv-x="207" d="M10 -129H59L170 100H104L10 -129ZM154 338L177 438H238L215 338H154Z" />
<glyph unicode="&lt;" glyph-name="less" horiz-adv-x="560" d="M524 423L165 252L524 78V14L104 224V278L524 486V423Z" />
<glyph unicode="=" glyph-name="equal" horiz-adv-x="560" d="M123 312V368H552V312H123ZM123 133V189H552V133H123Z" />
<glyph unicode="&gt;" glyph-name="greater" horiz-adv-x="560" d="M508 252L149 423V486L569 278V224L149 14V78L508 252Z" />
<glyph unicode="?" glyph-name="question" horiz-adv-x="410" d="M499 580Q499 530 483 494T435 427T332 340Q261 283 250 232L242 193H185Q187 222 192 248Q205 314 295 383Q380 451 407 487T435 577Q435 649 327 649Q301 649 265 645T206 635L183 630L186 680Q274
705 339 705Q413 705 456 675T499 580ZM146 1L168 104H230L207 1H146Z" />
<glyph unicode="@" glyph-name="at" horiz-adv-x="927" d="M639 719Q732 719 799 697T904 637T958 544T973 429T953 297Q930 200 905 138T850 44T790 1T718 -10Q632 -10 623 49Q505 -10 432 -10Q383 -10 355 10T319 68T313 136T321 209Q374 510 575 510Q629 510
758 486Q739 413 708 270T675 91Q674 64 687 56T730 47Q767 47 792 64T845 139T898 307Q913 371 915 421T906 518T862 596T772 646T628 665Q437 665 330 572T169 263Q69 -145 449 -145L585 -136L575 -190Q480 -200 435 -200Q334 -200 262 -172T154 -99T102 8T89
132T109 263Q167 511 291 615T639 719ZM446 46Q511 45 615 101Q620 158 688 442Q632 457 571 457Q494 457 451 395T381 208Q346 46 446 46Z" />
<glyph unicode="A" glyph-name="A" horiz-adv-x="555" d="M27 0L382 695H508L531 0H470L462 191H188L89 0H27ZM417 640L215 245H462L449 640H417Z" />
<glyph unicode="B" glyph-name="B" horiz-adv-x="578" d="M241 695H461Q543 695 583 664T624 562Q624 487 586 435T490 360Q534 344 556 316T578 240Q578 129 510 65T315 0H81L241 695ZM386 328H218L155 54H328Q416 54 465 103T514 239Q514 289 481 308T386 328ZM450
641H289L230 382H396Q469 382 515 431T561 554Q561 603 535 622T450 641Z" />
<glyph unicode="C" glyph-name="C" horiz-adv-x="506" d="M476 63L473 12Q384 -10 305 -10Q115 -10 115 189Q115 255 127 324T168 462T235 584T334 671T464 705Q499 705 540 700T605 688L629 683L615 633Q534 649 460 649Q393 649 338 606T250 493T198 346T179
191Q179 117 211 82T314 46Q349 46 389 50T453 58L476 63Z" />
<glyph unicode="D" glyph-name="D" horiz-adv-x="607" d="M319 0H81L241 695H466Q559 695 604 646T649 489Q649 425 637 359T599 227T534 112T441 31T319 0ZM585 489Q585 568 555 604T454 640H290L156 55H329Q390 55 440 98T521 208T568 348T585 489Z" />
<glyph unicode="E" glyph-name="E" horiz-adv-x="507" d="M81 0L241 695H624L611 640H290L230 382H496L483 327H218L155 55H476L463 0H81Z" />
<glyph unicode="F" glyph-name="F" horiz-adv-x="483" d="M81 0L241 695H615L602 640H290L223 350H491L478 296H210L142 0H81Z" />
<glyph unicode="G" glyph-name="G" horiz-adv-x="573" d="M403 301L415 354H592L513 18Q420 -10 320 -10Q116 -10 116 182Q116 276 137 366T200 534T311 658T469 705Q513 705 562 698T640 683L667 676L651 628Q550 650 461 650Q391 650 335 605T247 489T197 338T180
181Q180 45 326 45Q354 45 388 49T442 58L462 63L518 301H403Z" />
<glyph unicode="H" glyph-name="H" horiz-adv-x="624" d="M482 0L556 322H216L142 0H81L241 695H303L229 377H569L643 695H704L544 0H482Z" />
<glyph unicode="I" glyph-name="I" horiz-adv-x="223" d="M81 0L241 695H303L142 0H81Z" />
<glyph unicode="J" glyph-name="J" horiz-adv-x="260" d="M343 695L209 114Q197 63 188 35T166 -17T131 -51T82 -66T7 -71L17 -16Q84 -15 106 8T149 121L282 695H343Z" />
<glyph unicode="K" glyph-name="K" horiz-adv-x="516" d="M432 0L320 315L214 313L142 0H81L241 695H303L227 368L325 370L587 695H657L374 344L497 0H432Z" />
<glyph unicode="L" glyph-name="L" horiz-adv-x="436" d="M429 0H81L241 695H303L155 55H441L429 0Z" />
<glyph unicode="M" glyph-name="M" horiz-adv-x="778" d="M81 0L241 695H350L404 87L748 695H858L697 0H635L784 640H773L426 23H359L301 640H290L142 0H81Z" />
<glyph unicode="N" glyph-name="N" horiz-adv-x="625" d="M81 0L241 695H357L478 61H499L645 695H705L545 0H433L309 636H287L140 0H81Z" />
<glyph unicode="O" glyph-name="O" horiz-adv-x="631" d="M334 45Q404 45 457 87Q530 145 569 261T609 495Q609 575 572 612T455 650Q391 650 340 610Q265 552 223 432T180 199Q180 115 215 80T334 45ZM328 -10Q217 -10 167 38T117 197Q117 324 158 443T276 632Q357
705 459 705Q673 705 673 498Q673 363 630 242T506 53Q430 -10 328 -10Z" />
<glyph unicode="P" glyph-name="P" horiz-adv-x="547" d="M366 241H198L142 0H81L241 695H465Q549 695 587 656T626 538Q626 407 558 324T366 241ZM211 296H376Q467 296 514 365T562 538Q562 589 538 614T457 639H290L211 296Z" />
<glyph unicode="Q" glyph-name="Q" horiz-adv-x="631" d="M328 -10Q217 -10 167 38T117 197Q117 324 158 443T276 632Q357 705 459 705Q673 705 673 498Q673 363 630 242T506 53Q486 36 458 21L505 -124L447 -143L402 0Q364 -10 328 -10ZM334 45Q404 45 457 87Q530
145 569 261T609 495Q609 575 572 612T455 650Q391 650 340 610Q265 552 223 432T180 199Q180 115 215 80T334 45Z" />
<glyph unicode="R" glyph-name="R" horiz-adv-x="566" d="M464 0L387 270H205L142 0H81L241 695H457Q544 695 586 658T629 535Q629 423 573 359T445 278L526 0H464ZM565 533Q565 592 538 616T449 641H290L217 324H379Q463 324 514 382T565 533Z" />
<glyph unicode="S" glyph-name="S" horiz-adv-x="500" d="M591 679L580 632Q476 650 406 650Q323 650 276 609T228 490Q228 447 255 428T360 383Q439 357 470 326T502 230Q502 119 436 55T256 -10Q215 -10 166 -4T86 8L57 13L68 63Q185 45 260 45Q345 45 392 93T439
226Q439 271 416 290T323 333Q238 360 202 391T165 486Q165 590 232 647T411 705Q450 705 495 699T566 686L591 679Z" />
<glyph unicode="T" glyph-name="T" horiz-adv-x="472" d="M157 640L170 695H620L607 640H413L265 0H204L351 640H157Z" />
<glyph unicode="U" glyph-name="U" horiz-adv-x="593" d="M297 695L186 213Q176 173 176 139Q176 46 315 46Q399 46 441 84T503 206L616 695H678L565 205Q539 95 480 43T311 -10Q219 -10 167 25T115 132Q115 177 126 218L236 695H297Z" />
<glyph unicode="V" glyph-name="V" horiz-adv-x="542" d="M611 695H673L338 0H198L184 695H246L255 55H303L611 695Z" />
<glyph unicode="W" glyph-name="W" horiz-adv-x="820" d="M190 695H251L222 56H252L532 685H598L583 56H611L883 695H945L646 0H529L545 589L284 0H164L190 695Z" />
<glyph unicode="X" glyph-name="X" horiz-adv-x="512" d="M248 695L348 394L587 695H656L373 343L490 0H427L326 298L84 0H15L300 348L185 695H248Z" />
<glyph unicode="Y" glyph-name="Y" horiz-adv-x="490" d="M635 695L340 298L270 0H211L281 304L173 695H235L324 358L569 695H635Z" />
<glyph unicode="Z" glyph-name="Z" horiz-adv-x="496" d="M188 640L201 695H617L595 602L123 79L117 55H467L454 0H38L59 90L530 612L537 640H188Z" />
<glyph unicode="[" glyph-name="bracketleft" horiz-adv-x="283" d="M238 747H425L413 694H286L107 -69H234L220 -122H34L238 747Z" />
<glyph unicode="\" glyph-name="backslash" horiz-adv-x="411" d="M383 10L320 0L189 691L252 701L383 10Z" />
<glyph unicode="]" glyph-name="bracketright" horiz-adv-x="283" d="M190 -121H3L15 -68H142L321 695H194L208 748H394L190 -121Z" />
<glyph unicode="^" glyph-name="asciicircum" horiz-adv-x="560" d="M496 320L343 600L196 320H131L315 660H370L561 320H496Z" />
<glyph unicode="_" glyph-name="underscore" horiz-adv-x="602" d="M58 -79H507L492 -139H45L58 -79Z" />
<glyph unicode="`" glyph-name="grave" horiz-adv-x="518" d="M318 734L494 640L466 599L289 687L318 734Z" />
<glyph unicode="a" glyph-name="a" horiz-adv-x="493" d="M216 -10Q91 -10 91 131Q91 193 107 258T154 380T233 473T342 510Q369 510 417 504T501 492L536 486L460 161Q453 133 446 93T436 27L432 1L374 -1Q389 92 393 113Q389 108 383 100T357 70T317 33T269
4T216 -10ZM343 457Q284 457 239 402T174 275T153 131Q153 87 171 65T233 43Q264 43 307 78T378 149L406 184L467 442Q395 457 343 457Z" />
<glyph unicode="b" glyph-name="b" horiz-adv-x="492" d="M386 510Q460 510 488 471T516 359Q516 320 508 274T480 176T432 84T359 17T263 -10Q229 -10 181 -4T102 8L71 14L235 722H295L226 427Q235 436 250 450T308 487T386 510ZM262 43Q313 43 353 80T413 172T444
275T454 356Q454 406 438 431T369 456Q339 456 300 433T236 386L211 362L141 57Q216 43 262 43Z" />
<glyph unicode="c" glyph-name="c" horiz-adv-x="404" d="M358 510Q382 510 412 506T460 498L477 494L462 446Q400 457 356 457Q290 457 244 410T177 295T156 147Q156 95 182 69T266 43Q283 43 311 47T360 55L379 59L376 11Q308 -10 248 -10Q95 -10 95 137Q95
210 111 276T158 395T241 479T358 510Z" />
<glyph unicode="d" glyph-name="d" horiz-adv-x="493" d="M591 722L423 0H365L387 98Q384 94 378 87T353 61T315 28T267 2T213 -10Q91 -10 91 129Q91 217 119 302T206 448T340 509Q368 509 402 505T456 496L477 492L531 722H591ZM404 172L466 442Q399 457 340
457Q283 457 239 402T174 273T153 129Q153 43 231 43Q264 43 307 75T377 140L404 172Z" />
<glyph unicode="e" glyph-name="e" horiz-adv-x="458" d="M256 44Q289 44 330 50T396 62L420 69L416 20Q329 -10 240 -10Q170 -10 132 27T93 138Q93 204 109 268T157 387T242 475T362 509Q503 509 503 395Q503 307 435 272T222 236H166Q154 186 154 144Q154 96
181 70T256 44ZM175 285H234Q344 285 393 308T443 394Q443 458 359 458Q228 458 175 285Z" />
<glyph unicode="f" glyph-name="f" horiz-adv-x="305" d="M250 447L146 0L86 -225H34L190 447H130L143 500H201L213 549Q237 650 274 691T380 732Q396 732 416 729T450 723L462 720L450 673Q409 680 376 680Q335 680 313 650T273 547L261 500H403L389 447H250Z" />
<glyph unicode="g" glyph-name="g" horiz-adv-x="464" d="M189 -237Q111 -237 66 -202T20 -107Q20 -22 155 50Q140 65 140 91Q140 111 153 135T180 174L193 189Q124 220 124 307Q124 383 178 446T324 510Q347 510 369 506T403 498L414 494L562 500L550 447H453Q472
418 472 374Q472 299 417 236T261 173L231 175Q196 131 196 102Q196 84 214 77T288 62Q372 52 406 26T441 -55Q441 -129 372 -183T189 -237ZM277 10Q211 18 189 27Q144 4 111 -28T78 -94Q78 -135 108 -160T194 -185Q271 -185 326 -150T382 -59Q382 -25 359 -11T277
10ZM269 224Q339 224 377 271T415 367Q415 413 393 435T320 458Q258 458 220 411T182 310Q182 224 269 224Z" />
<glyph unicode="h" glyph-name="h" horiz-adv-x="495" d="M129 0H69L236 722H296L222 402Q225 406 231 413T256 439T294 472T340 498T393 510Q449 510 479 477T509 387Q509 341 489 254L430 0H371L430 252Q448 329 448 377Q448 456 374 456Q341 456 299 425T231
362L205 330L129 0Z" />
<glyph unicode="i" glyph-name="i" horiz-adv-x="197" d="M68 0L184 500H244L128 0H68ZM210 616L229 696H289L271 616H210Z" />
<glyph unicode="j" glyph-name="j" horiz-adv-x="197" d="M68 0L184 500H244L128 0Q102 -113 72 -149T-72 -237L-92 -188Q1 -141 24 -113T68 0ZM212 617L230 695H290L272 617H212Z" />
<glyph unicode="k" glyph-name="k" horiz-adv-x="440" d="M129 0H69L236 722H296L198 297L269 299L464 500H535L314 270L416 0H352L258 247L185 246L129 0Z" />
<glyph unicode="l" glyph-name="l" horiz-adv-x="207" d="M74 0L241 722H300L133 0H74Z" />
<glyph unicode="m" glyph-name="m" horiz-adv-x="774" d="M429 0H369L428 252Q447 333 447 377Q447 456 373 456Q340 456 298 425T230 362L205 331L128 0H68L184 500H242L222 403Q225 407 231 414T255 440T293 473T339 498T393 510Q422 510 444 501T476 477T493
449T502 426L503 416Q506 420 512 426T538 448T576 477T621 500T672 510Q729 510 759 477T789 387Q789 346 769 254L710 0H650L709 252Q728 333 728 376Q728 414 709 435T654 456Q624 456 587 432T527 382L505 358Q503 315 488 254L429 0Z" />
<glyph unicode="n" glyph-name="n" horiz-adv-x="494" d="M128 0H68L184 500H242L221 403Q224 407 230 414T255 440T293 473T339 498T392 510Q449 510 479 477T509 387Q509 340 489 256L429 0H370L429 252Q448 333 448 377Q448 456 373 456Q340 456 298 425T230
362L205 331L128 0Z" />
<glyph unicode="o" glyph-name="o" horiz-adv-x="494" d="M345 509Q513 509 513 344Q513 196 443 93T258 -10Q94 -10 94 148Q94 297 165 403T345 509ZM258 43Q344 43 398 131T452 345Q452 396 425 426T345 457Q262 457 208 365T154 148Q154 43 258 43Z" />
<glyph unicode="p" glyph-name="p" horiz-adv-x="492" d="M17 -225L184 500H242L220 401Q223 405 229 412T255 439T293 472T339 498T390 510Q516 510 516 368Q516 283 489 199T402 52T267 -10Q239 -10 205 -6T150 4L130 8L76 -225H17ZM374 456Q343 456 301 424T231
360L204 327L141 58Q208 43 267 43Q311 43 348 75T407 158T442 263T455 366Q455 456 374 456Z" />
<glyph unicode="q" glyph-name="q" horiz-adv-x="491" d="M216 -10Q153 -10 122 26T90 130Q90 216 118 301T205 447T339 509Q371 509 420 504T502 492L535 486L372 -218H313L386 98Q383 94 377 87T353 61T315 28T269 2T216 -10ZM339 457Q283 457 239 403T173 276T152
133Q152 43 233 43Q265 43 307 75T376 140L403 172L465 442Q400 457 339 457Z" />
<glyph unicode="r" glyph-name="r" horiz-adv-x="311" d="M68 0L185 500H244L226 425Q322 491 413 510L398 449Q368 442 322 422T246 386L215 370L129 0H68Z" />
<glyph unicode="s" glyph-name="s" horiz-adv-x="428" d="M483 491L470 443Q377 457 313 457Q257 457 222 425T187 348Q187 321 206 308T285 281Q361 263 391 242T422 170Q422 83 362 37T207 -10Q175 -10 136 -5T74 6L52 11L63 59Q155 43 214 43Q279 43 320 72T361
158Q361 190 340 202T257 229Q187 246 157 267T127 335Q127 411 181 460T321 509Q354 509 394 505T459 496L483 491Z" />
<glyph unicode="t" glyph-name="t" horiz-adv-x="315" d="M402 447H254L192 183Q179 127 179 94Q179 43 234 43L314 49L310 2Q258 -10 216 -10Q169 -10 143 14T116 82Q116 118 133 186L194 447H126L139 500H207L244 653H304L266 500H415L402 447Z" />
<glyph unicode="u" glyph-name="u" horiz-adv-x="494" d="M481 500H541L425 0H367L388 97Q385 93 379 86T354 60T316 27T270 2T217 -10Q161 -10 131 23T100 112Q100 160 120 244L180 500H239L180 248Q161 167 161 123Q161 85 180 65T236 44Q269 44 311 75T378
137L404 168L481 500Z" />
<glyph unicode="v" glyph-name="v" horiz-adv-x="452" d="M142 500H201L215 52H250L478 500H541L282 0H159L142 500Z" />
<glyph unicode="w" glyph-name="w" horiz-adv-x="723" d="M146 500H206L203 52H220L437 490H509L519 52H537L745 500H806L574 0H463L455 413L253 0H144L146 500Z" />
<glyph unicode="x" glyph-name="x" horiz-adv-x="416" d="M140 500H202L276 291L445 500H511L300 245L390 0H327L255 204L89 0H22L230 250L140 500Z" />
<glyph unicode="y" glyph-name="y" horiz-adv-x="452" d="M142 500H201L215 52H249L478 500H541L167 -224H106L224 0H159L142 500Z" />
<glyph unicode="z" glyph-name="z" horiz-adv-x="418" d="M141 447L155 500H495L484 448L121 52H392L380 0H39L48 52L410 447H141Z" />
<glyph unicode="{" glyph-name="braceleft" horiz-adv-x="319" d="M221 223Q221 204 197 119T173 4Q173 -70 269 -70L254 -126Q113 -122 113 -13Q113 20 137 105T161 207Q161 239 144 257T88 288L100 338Q165 355 189 380T224 460Q227 473 232 504T243 561T252
598Q277 677 324 712T461 751L451 696Q382 692 348 662T301 569Q301 567 292 516T279 451Q265 389 239 359T158 311Q221 286 221 223Z" />
<glyph unicode="|" glyph-name="bar" horiz-adv-x="306" d="M180 -225V722H240V-225H180Z" />
<glyph unicode="}" glyph-name="braceright" horiz-adv-x="318" d="M241 400Q241 419 265 503T289 619Q289 693 193 693L208 749Q349 745 349 636Q349 603 325 518T301 416Q301 384 318 366T374 335L362 285Q297 268 273 243T238 163Q235 150 230 119T219 62T210
25Q185 -54 138 -89T1 -128L11 -73Q80 -69 114 -39T161 54Q161 56 170 107T183 172Q197 234 223 264T304 312Q241 336 241 400Z" />
<glyph unicode="~" glyph-name="asciitilde" horiz-adv-x="560" d="M543 305L554 255Q494 201 441 201Q411 201 337 234T243 267Q226 267 200 255T156 230L139 218L128 269Q190 323 243 323Q272 323 346 290T441 257Q457 257 482 269T526 293L543 305Z" />
<glyph unicode="&#xa1;" glyph-name="exclamdown" horiz-adv-x="182" d="M184 277L75 -200H15L131 277H184ZM234 500L211 400H150L173 500H234Z" />
<glyph unicode="&#xa2;" glyph-name="cent" horiz-adv-x="560" d="M258 -82L287 38Q118 41 170 248Q197 351 252 405T386 461L415 585H467L437 461L535 451L519 397Q435 405 399 405Q269 405 230 248Q221 204 220 170T244 116T326 95L454 102L442 49Q379 41 339
41L310 -82H258Z" />
<glyph unicode="&#xa3;" glyph-name="sterling" horiz-adv-x="560" d="M603 664L590 617Q519 625 467 625Q446 625 431 621T403 604T384 581T368 547T357 510T345 464L333 415H536L524 362H320L251 53H401L478 70V18L398 0H81L93 53H189L259 362H185L198 415H272L284
471Q310 581 348 630T471 679Q495 679 528 676T582 668L603 664Z" />
<glyph unicode="&#xa4;" glyph-name="currency" horiz-adv-x="560" d="M510 37L439 108Q393 75 337 75T235 108L165 37L123 80L193 149Q160 195 160 251T193 354L123 424L165 467L235 396Q281 428 337 428T439 396L510 467L552 424L481 353Q513 307 513 251T481
150L552 80L510 37ZM253 167Q288 133 338 133T422 167Q456 202 456 252T422 336T338 370T253 336T218 252T253 167Z" />
<glyph unicode="&#xa5;" glyph-name="yen" horiz-adv-x="560" d="M142 318L154 372H293L178 661H244L360 370L604 661H683L438 372H573L561 318H395L380 300L362 223H539L526 168H349L309 0H249L288 168H107L120 223H300L318 302L314 318H142Z" />
<glyph unicode="&#xa6;" glyph-name="brokenbar" horiz-adv-x="313" d="M184 722H244V347H184V722ZM184 152H244V-225H184V152Z" />
<glyph unicode="&#xa7;" glyph-name="section" horiz-adv-x="466" d="M541 638L526 583Q427 597 382 597Q312 597 275 563T237 471Q237 434 261 420T348 395Q475 372 475 288Q475 217 399 122Q416 99 416 64Q416 46 411 23T390 -30T351 -83T288 -123T197 -139Q171
-139 131 -135T64 -127L38 -123L55 -69Q157 -83 208 -83Q274 -83 314 -42T354 47Q354 78 333 91T241 118Q169 130 139 157T109 230Q109 267 130 306T167 363T194 389Q174 413 174 462Q174 537 232 595T393 653Q420 653 457 650T518 642L541 638ZM316 341Q246 352
231 365Q225 359 214 345T187 301T171 248Q171 217 192 201T268 175Q332 163 359 148Q362 151 374 170T400 220T414 273Q414 300 392 315T316 341Z" />
<glyph unicode="&#xa8;" glyph-name="dieresis" horiz-adv-x="722" d="M249 625L268 707H317L298 625H249ZM428 625L446 707H495L476 625H428Z" />
<glyph unicode="&#xa9;" glyph-name="copyright" horiz-adv-x="645" d="M162 320T162 434T236 626T422 704Q535 704 609 626T683 434Q683 319 610 242T422 164Q310 164 236 242ZM202 530T202 434T265 271T422 203Q517 203 580 270T644 434Q644 530 580 597T422
665T265 598ZM498 333L501 288Q462 278 424 278Q361 278 336 316T311 434Q311 513 336 551T425 590Q443 590 462 588T491 584L501 581L498 535Q459 542 427 542Q386 542 373 517T360 434Q360 378 374 352T427 326L498 333Z" />
<glyph unicode="&#xaa;" glyph-name="ordfeminine" horiz-adv-x="348" d="M406 564L374 426Q380 414 401 408L390 368Q360 368 347 373T324 392Q260 368 206 368Q170 368 154 391T148 455Q158 496 182 515T255 538L347 544L353 566Q359 592 350 602T316 613L204
606L210 646Q283 659 328 659Q379 659 398 638T406 564ZM338 504L256 499Q212 496 202 455Q192 413 229 413Q246 413 269 417T306 426L321 431L338 504Z" />
<glyph unicode="&#xab;" glyph-name="guillemotleft" horiz-adv-x="437" d="M478 402L459 339L323 247L414 145L397 89L262 234L273 265L478 402ZM303 402L284 339L148 247L239 145L222 89L87 234L98 265L303 402Z" />
<glyph unicode="&#xac;" glyph-name="logicalnot" horiz-adv-x="560" d="M126 338H551V120H494V283H126V338Z" />
<glyph unicode="&#xae;" glyph-name="registered" horiz-adv-x="645" d="M162 320T162 434T236 626T422 704Q535 704 609 626T683 434Q683 319 610 242T422 164Q310 164 236 242ZM202 530T202 434T265 271T422 203Q517 203 580 270T644 434Q644 530 580 597T422
665T265 598ZM486 283L432 394H364V283H316V583H419Q477 583 505 562T533 490Q533 419 479 400L538 283H486ZM363 542V435H430Q460 435 472 447T485 489Q485 518 469 530T417 542H363Z" />
<glyph unicode="&#xaf;" glyph-name="overscore" horiz-adv-x="433" d="M232 642L243 689H510L498 642H232Z" />
<glyph unicode="0;" glyph-name="degree" horiz-adv-x="560" d="M270 503T270 565T308 666T409 705T510 666T549 565T510 465T409 427T309 465ZM314 565Q314 522 340 496T409 469Q453 469 480 495T507 565T480 635T409 662Q366 662 340 636T314 565Z" />
<glyph unicode="1;" glyph-name="plusminus" horiz-adv-x="560" d="M103 298V354H297V484H354V354H550V298H354V165H297V298H103ZM103 98H550V42H103V98Z" />
<glyph unicode="2;" glyph-name="twosuperior" horiz-adv-x="280" d="M347 478H143L155 526L270 619Q304 646 321 665T344 707Q350 728 338 738T302 748Q288 748 266 746T228 740L213 738L223 787Q283 799 325 799Q422 799 400 711Q386 655 308 595L225 527H359L347
478Z" />
<glyph unicode="3;" glyph-name="threesuperior" horiz-adv-x="280" d="M222 789Q282 799 325 799Q377 799 397 779T407 717Q405 708 402 701T394 687T386 675T378 665T369 657T361 650T354 646T348 642L345 641Q370 633 378 618T377 564Q354 468 248 468Q226
468 200 471T157 476L141 479L156 526Q210 518 256 518Q310 518 322 565Q335 614 283 614H218L229 661H294Q310 661 327 676T350 712Q355 731 346 740T309 750Q289 750 266 748T228 744L214 742L222 789Z" />
<glyph unicode="4;" glyph-name="acute" horiz-adv-x="542" d="M285 601L279 647L497 741L504 688L285 601Z" />
<glyph unicode="5;" glyph-name="mu" horiz-adv-x="560" d="M46 -225L162 275L215 500H274L221 275H222L204 200Q196 158 196 123Q196 85 215 65T271 44Q304 44 346 75T414 137L439 168L516 500H576L460 0H402L423 97Q420 93 414 86T389 60T351 27T305 2T252
-10Q195 -10 164 24L106 -225H46Z" />
<glyph unicode="6;" glyph-name="paragraph" horiz-adv-x="554" d="M384 0L538 646H416L261 0H209L291 338Q218 339 183 378T147 476Q147 559 211 629T369 700H679L668 646H590L436 0H384Z" />
<glyph unicode="7;" glyph-name="middot" horiz-adv-x="174" d="M114 254L137 359H200L177 254H114Z" />
<glyph unicode="8;" glyph-name="cedilla" horiz-adv-x="791" d="M499 -124Q480 -207 395 -207L317 -201L328 -157Q367 -161 395 -161Q437 -161 447 -122Q455 -86 413 -86H369L391 5H428L414 -48H419Q463 -48 485 -65T499 -124Z" />
<glyph unicode="9;" glyph-name="onesuperior" horiz-adv-x="280" d="M205 721L323 790H374L297 478H243L306 731L220 681L205 721Z" />
<glyph unicode="a;" glyph-name="ordmasculine" horiz-adv-x="340" d="M321 658Q415 658 419 583Q421 554 412 510Q395 435 357 401T252 366Q205 366 180 390T155 459Q155 481 163 515Q182 592 219 625T321 658ZM264 417Q302 417 323 438T358 514Q363 538
363 562Q363 587 351 597T311 608Q273 608 252 587T218 516Q210 484 210 466Q210 417 264 417Z" />
<glyph unicode="b;" glyph-name="guillemotright" horiz-adv-x="481" d="M292 89L311 152L447 244L356 346L373 402L508 257L497 226L292 89ZM73 89L92 152L228 244L137 346L154 402L289 257L278 226L73 89Z" />
<glyph unicode="c;" glyph-name="onequarter" horiz-adv-x="584" d="M182 721L300 790H351L274 478H220L283 731L197 681L182 721ZM165 -7L109 14L535 704L592 683L165 -7ZM476 0L488 51H345L357 97L487 312H546L416 101H500L526 188H576L554 101H584L572
51H542L529 0H476Z" />
<glyph unicode="d;" glyph-name="onehalf" horiz-adv-x="609" d="M182 721L300 790H351L274 478H220L283 731L197 681L182 721ZM165 -7L109 14L535 704L592 683L165 -7ZM576 0H372L384 48L499 141Q533 168 550 187T573 229Q579 250 567 260T531 270Q517 270
495 268T458 262L442 260L452 309Q512 321 554 321Q651 321 629 233Q615 177 537 117L454 49H588L576 0Z" />
<glyph unicode="e;" glyph-name="threequarters" horiz-adv-x="603" d="M222 789Q282 799 325 799Q377 799 397 779T407 717Q405 708 402 701T394 687T386 675T378 665T369 657T361 650T354 646T348 642L345 641Q370 633 378 618T377 564Q354 468 248 468Q226
468 200 471T157 476L141 479L156 526Q210 518 256 518Q310 518 322 565Q335 614 283 614H218L229 661H294Q310 661 327 676T350 712Q355 731 346 740T309 750Q289 750 266 748T228 744L214 742L222 789ZM186 -7L130 14L556 704L613 683L186 -7ZM497 0L509 51H366L378
97L508 312H567L437 101H521L547 188H597L575 101H605L593 51H563L550 0H497Z" />
<glyph unicode="f;" glyph-name="questiondown" horiz-adv-x="401" d="M23 -79Q23 -29 39 7T87 74T190 161Q261 218 272 269L280 308H337Q335 279 330 253Q317 187 227 118Q142 50 115 14T87 -76Q87 -148 195 -148Q221 -148 257 -143T316 -134L339 -129L336
-179Q248 -204 183 -204Q109 -204 66 -174T23 -79ZM376 500L354 397H292L315 500H376Z" />
<glyph unicode="0;" glyph-name="Agrave" horiz-adv-x="555" d="M358 925L533 830L507 787L329 875L358 925ZM27 0L382 695H508L531 0H470L462 191H188L89 0H27ZM417 640L215 245H462L449 640H417Z" />
<glyph unicode="1;" glyph-name="Aacute" horiz-adv-x="555" d="M396 790L388 835L607 930L616 878L396 790ZM27 0L382 695H508L531 0H470L462 191H188L89 0H27ZM417 640L215 245H462L449 640H417Z" />
<glyph unicode="2;" glyph-name="Acircumflex" horiz-adv-x="555" d="M311 797L472 931H502L599 797H543L482 883L377 797H311ZM27 0L382 695H508L531 0H470L462 191H188L89 0H27ZM417 640L215 245H462L449 640H417Z" />
<glyph unicode="3;" glyph-name="Atilde" horiz-adv-x="555" d="M626 910L629 868Q566 809 533 809Q510 809 459 838T394 868Q385 868 363 855T324 830L306 817L304 861Q371 920 406 920Q432 920 482 891T545 862Q553 862 573 874T610 898L626 910ZM27 0L382
695H508L531 0H470L462 191H188L89 0H27ZM417 640L215 245H462L449 640H417Z" />
<glyph unicode="4;" glyph-name="Adieresis" horiz-adv-x="555" d="M349 820L367 903H417L397 820H349ZM533 820L553 903H602L582 820H533ZM27 0L382 695H508L531 0H470L462 191H188L89 0H27ZM417 640L215 245H462L449 640H417Z" />
<glyph unicode="5;" glyph-name="Aring" horiz-adv-x="555" d="M27 0L370 671Q346 697 359 745Q372 792 403 816T480 841Q524 841 545 817T554 745Q542 698 508 673L531 0H470L462 191H188L89 0H27ZM417 640L215 245H462L449 640H417ZM400 745Q390 704 425
695H463Q502 704 513 745Q518 770 506 784T469 798Q412 798 400 745Z" />
<glyph unicode="6;" glyph-name="AE" horiz-adv-x="786" d="M357 0L401 191H185L86 0H27L382 697H905L893 640L567 642L504 382H774L762 326H492L428 57H753L741 0H357ZM412 640L212 247H414L509 640H412Z" />
<glyph unicode="7;" glyph-name="Ccedilla" horiz-adv-x="506" d="M476 63L473 12Q384 -10 305 -10H302L292 -48H297Q341 -48 363 -65T377 -124Q358 -207 273 -207L195 -201L206 -157Q245 -161 273 -161Q315 -161 325 -122Q333 -86 291 -86H247L266 -7Q115
12 115 189Q115 255 127 324T168 462T235 584T334 671T464 705Q499 705 540 700T605 688L629 683L615 633Q534 649 460 649Q393 649 338 606T250 493T198 346T179 191Q179 117 211 82T314 46Q349 46 389 50T453 58L476 63Z" />
<glyph unicode="8;" glyph-name="Egrave" horiz-adv-x="507" d="M377 925L552 830L526 787L348 875L377 925ZM81 0L241 695H624L611 640H290L230 382H496L483 327H218L155 55H476L463 0H81Z" />
<glyph unicode="9;" glyph-name="Eacute" horiz-adv-x="507" d="M383 790L375 835L594 930L603 878L383 790ZM81 0L241 695H624L611 640H290L230 382H496L483 327H218L155 55H476L463 0H81Z" />
<glyph unicode="a;" glyph-name="Ecircumflex" horiz-adv-x="507" d="M363 794L524 928H554L651 794H595L534 880L429 794H363ZM81 0L241 695H624L611 640H290L230 382H496L483 327H218L155 55H476L463 0H81Z" />
<glyph unicode="b;" glyph-name="Edieresis" horiz-adv-x="507" d="M343 820L361 903H411L391 820H343ZM527 820L547 903H596L576 820H527ZM81 0L241 695H624L611 640H290L230 382H496L483 327H218L155 55H476L463 0H81Z" />
<glyph unicode="c;" glyph-name="Igrave" horiz-adv-x="223" d="M180 925L355 830L329 787L151 875L180 925ZM81 0L241 695H303L142 0H81Z" />
<glyph unicode="d;" glyph-name="Iacute" horiz-adv-x="223" d="M241 790L233 835L452 930L461 878L241 790ZM81 0L241 695H303L142 0H81Z" />
<glyph unicode="e;" glyph-name="Icircumflex" horiz-adv-x="223" d="M146 794L307 928H337L434 794H378L317 880L212 794H146ZM81 0L241 695H303L142 0H81Z" />
<glyph unicode="f;" glyph-name="Idieresis" horiz-adv-x="223" d="M177 823L195 906H245L225 823H177ZM361 823L381 906H430L410 823H361ZM81 0L241 695H303L142 0H81Z" />
<glyph unicode="&#xd0;" glyph-name="Eth" horiz-adv-x="611" d="M322 0H84L157 318H87L100 380H171L244 695H469Q562 695 607 646T652 489Q652 425 640 359T602 227T537 112T444 31T322 0ZM588 489Q588 568 558 604T457 640H293L233 380H383L368 318H219L159
55H332Q393 55 443 98T524 208T571 348T588 489Z" />
<glyph unicode="&#xd1;" glyph-name="Ntilde" horiz-adv-x="625" d="M664 908L667 866Q604 807 571 807Q548 807 497 836T432 866Q423 866 401 853T362 828L344 815L342 859Q409 918 444 918Q470 918 520 889T583 860Q591 860 611 872T648 896L664 908ZM81 0L241
695H357L478 61H499L645 695H705L545 0H433L309 636H287L140 0H81Z" />
<glyph unicode="&#xd2;" glyph-name="Ograve" horiz-adv-x="631" d="M417 925L592 830L566 787L388 875L417 925ZM334 45Q404 45 457 87Q530 145 569 261T609 495Q609 575 572 612T455 650Q391 650 340 610Q265 552 223 432T180 199Q180 115 215 80T334 45ZM328
-10Q217 -10 167 38T117 197Q117 324 158 443T276 632Q357 705 459 705Q673 705 673 498Q673 363 630 242T506 53Q430 -10 328 -10Z" />
<glyph unicode="&#xd3;" glyph-name="Oacute" horiz-adv-x="631" d="M334 45Q404 45 457 87Q530 145 569 261T609 495Q609 575 572 612T455 650Q391 650 340 610Q265 552 223 432T180 199Q180 115 215 80T334 45ZM328 -10Q217 -10 167 38T117 197Q117 324 158
443T276 632Q357 705 459 705Q673 705 673 498Q673 363 630 242T506 53Q430 -10 328 -10ZM433 790L425 835L644 930L653 878L433 790Z" />
<glyph unicode="&#xd4;" glyph-name="Ocircumflex" horiz-adv-x="631" d="M334 45Q404 45 457 87Q530 145 569 261T609 495Q609 575 572 612T455 650Q391 650 340 610Q265 552 223 432T180 199Q180 115 215 80T334 45ZM328 -10Q217 -10 167 38T117 197Q117 324
158 443T276 632Q357 705 459 705Q673 705 673 498Q673 363 630 242T506 53Q430 -10 328 -10ZM356 797L517 931H547L644 797H588L527 883L422 797H356Z" />
<glyph unicode="&#xd5;" glyph-name="Otilde" horiz-adv-x="631" d="M678 908L681 866Q618 807 585 807Q562 807 511 836T446 866Q437 866 415 853T376 828L358 815L356 859Q423 918 458 918Q484 918 534 889T597 860Q605 860 625 872T662 896L678 908ZM334 45Q404
45 457 87Q530 145 569 261T609 495Q609 575 572 612T455 650Q391 650 340 610Q265 552 223 432T180 199Q180 115 215 80T334 45ZM328 -10Q217 -10 167 38T117 197Q117 324 158 443T276 632Q357 705 459 705Q673 705 673 498Q673 363 630 242T506 53Q430 -10 328
-10Z" />
<glyph unicode="&#xd6;" glyph-name="Odieresis" horiz-adv-x="631" d="M383 820L402 902H458L439 820H383ZM569 820L587 902H642L623 820H569ZM334 45Q404 45 457 87Q530 145 569 261T609 495Q609 575 572 612T455 650Q391 650 340 610Q265 552 223 432T180 199Q180
115 215 80T334 45ZM328 -10Q217 -10 167 38T117 197Q117 324 158 443T276 632Q357 705 459 705Q673 705 673 498Q673 363 630 242T506 53Q430 -10 328 -10Z" />
<glyph unicode="&#xd7;" glyph-name="multiply" horiz-adv-x="560" d="M171 456L337 288L503 456L542 417L375 251L542 85L503 45L337 213L171 46L132 85L299 251L132 416L171 456Z" />
<glyph unicode="&#xd8;" glyph-name="Oslash" horiz-adv-x="631" d="M109 -113L72 -91L162 42Q117 90 117 197Q117 324 158 443T276 632Q357 705 459 705Q543 705 593 674L675 794L716 776L627 646Q673 596 673 498Q673 363 630 242T506 53Q430 -10 328 -10Q244
-10 197 15L109 -113ZM200 98L373 352L559 624Q523 650 455 650Q391 650 340 610Q265 552 223 432T180 199Q180 132 200 98ZM334 45Q404 45 457 87Q530 145 569 261T609 495Q609 553 589 590L412 330L232 66Q266 45 334 45Z" />
<glyph unicode="&#xd9;" glyph-name="Ugrave" horiz-adv-x="593" d="M393 925L568 830L542 787L364 875L393 925ZM297 695L186 213Q176 173 176 139Q176 46 315 46Q399 46 441 84T503 206L616 695H678L565 205Q539 95 480 43T311 -10Q219 -10 167 25T115 132Q115
177 126 218L236 695H297Z" />
<glyph unicode="&#xda;" glyph-name="Uacute" horiz-adv-x="593" d="M297 695L186 213Q176 173 176 139Q176 46 315 46Q399 46 441 84T503 206L616 695H678L565 205Q539 95 480 43T311 -10Q219 -10 167 25T115 132Q115 177 126 218L236 695H297ZM391 790L383 835L602
930L611 878L391 790Z" />
<glyph unicode="&#xdb;" glyph-name="Ucircumflex" horiz-adv-x="593" d="M297 695L186 213Q176 173 176 139Q176 46 315 46Q399 46 441 84T503 206L616 695H678L565 205Q539 95 480 43T311 -10Q219 -10 167 25T115 132Q115 177 126 218L236 695H297ZM329 797L490
931H520L617 797H561L500 883L395 797H329Z" />
<glyph unicode="&#xdc;" glyph-name="Udieresis" horiz-adv-x="593" d="M354 820L373 902H429L410 820H354ZM540 820L558 902H614L594 820H540ZM297 695L186 213Q176 173 176 139Q176 46 315 46Q399 46 441 84T503 206L616 695H678L565 205Q539 95 480 43T311
-10Q219 -10 167 25T115 132Q115 177 126 218L236 695H297Z" />
<glyph unicode="&#xdd;" glyph-name="Yacute" horiz-adv-x="490" d="M344 790L336 835L555 930L564 878L344 790ZM635 695L340 298L270 0H211L281 304L173 695H235L324 358L569 695H635Z" />
<glyph unicode="&#xde;" glyph-name="Thorn" horiz-adv-x="551" d="M356 183Q490 183 537 362Q577 524 432 524L263 525L182 183H356ZM343 125H168L139 0H79L243 697H303L276 582H446Q548 582 583 521T597 362Q573 254 509 190T343 125Z" />
<glyph unicode="&#xdf;" glyph-name="germandbls" horiz-adv-x="532" d="M125 0H68L193 531Q219 642 268 687T408 732Q563 732 563 618Q563 511 466 464Q419 441 402 427T385 394T396 362T446 325Q503 290 521 268T539 197Q539 102 481 46T317 -10Q294 -10 265
-6T217 4L199 8L210 56Q275 43 316 43Q392 43 435 83T478 192Q478 223 463 241T398 289Q356 315 340 335T324 384Q324 423 345 446T425 500Q466 521 484 546T502 611Q502 680 404 680Q336 680 302 645T248 524L125 0Z" />
<glyph unicode="&#xe0;" glyph-name="agrave" horiz-adv-x="493" d="M216 -10Q91 -10 91 131Q91 193 107 258T154 380T233 473T342 510Q369 510 417 504T501 492L536 486L460 161Q453 133 446 93T436 27L432 1L374 -1Q389 92 393 113Q389 108 383 100T357 70T317
33T269 4T216 -10ZM343 457Q284 457 239 402T174 275T153 131Q153 87 171 65T233 43Q264 43 307 78T378 149L406 184L467 442Q395 457 343 457ZM335 734L511 640L483 599L306 687L335 734Z" />
<glyph unicode="&#xe1;" glyph-name="aacute" horiz-adv-x="493" d="M216 -10Q91 -10 91 131Q91 193 107 258T154 380T233 473T342 510Q369 510 417 504T501 492L536 486L460 161Q453 133 446 93T436 27L432 1L374 -1Q389 92 393 113Q389 108 383 100T357 70T317
33T269 4T216 -10ZM343 457Q284 457 239 402T174 275T153 131Q153 87 171 65T233 43Q264 43 307 78T378 149L406 184L467 442Q395 457 343 457ZM341 601L335 647L553 741L560 688L341 601Z" />
<glyph unicode="&#xe2;" glyph-name="acircumflex" horiz-adv-x="493" d="M248 590L399 735H441L528 590H466L412 682L315 590H248ZM216 -10Q91 -10 91 131Q91 193 107 258T154 380T233 473T342 510Q369 510 417 504T501 492L536 486L460 161Q453 133 446 93T436
27L432 1L374 -1Q389 92 393 113Q389 108 383 100T357 70T317 33T269 4T216 -10ZM343 457Q284 457 239 402T174 275T153 131Q153 87 171 65T233 43Q264 43 307 78T378 149L406 184L467 442Q395 457 343 457Z" />
<glyph unicode="&#xe3;" glyph-name="atilde" horiz-adv-x="493" d="M216 -10Q91 -10 91 131Q91 193 107 258T154 380T233 473T342 510Q369 510 417 504T501 492L536 486L460 161Q453 133 446 93T436 27L432 1L374 -1Q389 92 393 113Q389 108 383 100T357 70T317
33T269 4T216 -10ZM343 457Q284 457 239 402T174 275T153 131Q153 87 171 65T233 43Q264 43 307 78T378 149L406 184L467 442Q395 457 343 457ZM567 714L571 668Q517 620 483 620Q464 620 416 644T355 669Q346 669 327 658T292 636L277 625L275 672Q335 722 369
722Q391 722 437 698T494 673Q502 673 520 683T553 704L567 714Z" />
<glyph unicode="&#xe4;" glyph-name="adieresis" horiz-adv-x="493" d="M272 625L291 707H347L327 625H272ZM458 625L475 707H531L512 625H458ZM216 -10Q91 -10 91 131Q91 193 107 258T154 380T233 473T342 510Q369 510 417 504T501 492L536 486L460 161Q453 133
446 93T436 27L432 1L374 -1Q389 92 393 113Q389 108 383 100T357 70T317 33T269 4T216 -10ZM343 457Q284 457 239 402T174 275T153 131Q153 87 171 65T233 43Q264 43 307 78T378 149L406 184L467 442Q395 457 343 457Z" />
<glyph unicode="&#xe5;" glyph-name="aring" horiz-adv-x="493" d="M216 -10Q91 -10 91 131Q91 193 107 258T154 380T233 473T342 510Q369 510 417 504T501 492L536 486L460 161Q453 133 446 93T436 27L432 1L374 -1Q389 92 393 113Q389 108 383 100T357 70T317
33T269 4T216 -10ZM343 457Q284 457 239 402T174 275T153 131Q153 87 171 65T233 43Q264 43 307 78T378 149L406 184L467 442Q395 457 343 457ZM337 664Q345 703 376 731T450 759Q485 759 502 738T517 680Q514 632 481 601T403 569Q361 569 345 595T337 664ZM376
664Q371 643 381 627T414 610T454 625T477 664Q482 684 472 700T440 716Q418 716 400 701T376 664Z" />
<glyph unicode="&#xe6;" glyph-name="ae" horiz-adv-x="757" d="M533 47Q563 47 606 49T678 54L707 56L696 4Q592 -10 517 -10Q423 -10 392 46Q343 25 276 8T165 -10Q103 -10 80 34T69 142Q82 211 127 243T248 288Q322 299 403 304Q452 450 352 450Q321 450 277
447T202 442L173 439L182 496Q294 509 367 509Q412 509 441 488T476 428Q538 509 649 509Q788 509 791 374Q791 321 777 271L764 223L450 225Q437 170 438 137Q439 92 460 70T533 47ZM183 46Q253 46 378 90Q376 100 375 110T374 129T375 150T376 169T380 190T384
210T388 231T393 252Q283 241 241 235Q151 221 132 143Q122 106 133 76T183 46ZM461 276L719 274Q733 331 732 365Q731 454 636 454Q569 454 526 412T461 276Z" />
<glyph unicode="&#xe7;" glyph-name="ccedilla" horiz-adv-x="405" d="M358 510Q382 510 412 506T460 498L477 494L462 446Q400 457 356 457Q290 457 244 410T177 295T156 147Q156 95 182 69T266 43Q283 43 311 47T360 55L379 59L376 11Q308 -10 248 -10H245L235
-48H240Q284 -48 306 -65T320 -124Q301 -207 216 -207L138 -201L149 -157Q188 -161 216 -161Q258 -161 268 -122Q276 -86 234 -86H190L209 -7Q95 11 95 137Q95 210 111 276T158 395T241 479T358 510Z" />
<glyph unicode="&#xe8;" glyph-name="egrave" horiz-adv-x="458" d="M256 44Q289 44 330 50T396 62L420 69L416 20Q329 -10 240 -10Q170 -10 132 27T93 138Q93 204 109 268T157 387T242 475T362 509Q503 509 503 395Q503 307 435 272T222 236H166Q154 186 154
144Q154 96 181 70T256 44ZM175 285H234Q344 285 393 308T443 394Q443 458 359 458Q228 458 175 285ZM257 734L433 640L405 599L228 687L257 734Z" />
<glyph unicode="&#xe9;" glyph-name="eacute" horiz-adv-x="458" d="M256 44Q289 44 330 50T396 62L420 69L416 20Q329 -10 240 -10Q170 -10 132 27T93 138Q93 204 109 268T157 387T242 475T362 509Q503 509 503 395Q503 307 435 272T222 236H166Q154 186 154
144Q154 96 181 70T256 44ZM175 285H234Q344 285 393 308T443 394Q443 458 359 458Q228 458 175 285ZM305 601L299 647L517 741L524 688L305 601Z" />
<glyph unicode="&#xea;" glyph-name="ecircumflex" horiz-adv-x="458" d="M228 590L380 735H421L508 590H447L393 682L296 590H228ZM256 44Q289 44 330 50T396 62L420 69L416 20Q329 -10 240 -10Q170 -10 132 27T93 138Q93 204 109 268T157 387T242 475T362 509Q503
509 503 395Q503 307 435 272T222 236H166Q154 186 154 144Q154 96 181 70T256 44ZM175 285H234Q344 285 393 308T443 394Q443 458 359 458Q228 458 175 285Z" />
<glyph unicode="&#xeb;" glyph-name="edieresis" horiz-adv-x="458" d="M263 625L282 707H338L319 625H263ZM449 625L467 707H523L503 625H449ZM256 44Q289 44 330 50T396 62L420 69L416 20Q329 -10 240 -10Q170 -10 132 27T93 138Q93 204 109 268T157 387T242
475T362 509Q503 509 503 395Q503 307 435 272T222 236H166Q154 186 154 144Q154 96 181 70T256 44ZM175 285H234Q344 285 393 308T443 394Q443 458 359 458Q228 458 175 285Z" />
<glyph unicode="&#xec;" glyph-name="igrave" horiz-adv-x="197" d="M68 0L184 500H244L128 0H68ZM107 734L283 640L255 599L78 687L107 734Z" />
<glyph unicode="&#xed;" glyph-name="iacute" horiz-adv-x="197" d="M68 0L184 500H244L128 0H68ZM196 601L190 647L408 741L415 688L196 601Z" />
<glyph unicode="&#xee;" glyph-name="icircumflex" horiz-adv-x="197" d="M88 590L239 735H281L367 590H306L252 682L155 590H88ZM68 0L184 500H244L128 0H68Z" />
<glyph unicode="&#xef;" glyph-name="idieresis" horiz-adv-x="197" d="M107 625L126 707H182L162 625H107ZM293 625L310 707H366L347 625H293ZM68 0L184 500H244L128 0H68Z" />
<glyph unicode="&#xf0;" glyph-name="eth" horiz-adv-x="514" d="M399 607L280 533L256 572L354 633Q318 652 255 672L280 726Q359 707 417 673L525 741L548 701L459 645Q591 543 547 358Q501 165 429 78T247 -9Q157 -9 116 38T82 156Q89 278 162 353T338 429Q370
429 409 420T470 400L493 390Q516 528 399 607ZM329 370Q254 370 202 310T147 160Q143 110 171 81T261 51Q409 51 480 331Q476 334 455 342T396 360T329 370Z" />
<glyph unicode="&#xf1;" glyph-name="ntilde" horiz-adv-x="494" d="M68 0H128L205 331Q209 336 215 344T242 374T281 412T326 442T373 456Q448 456 448 377Q448 333 429 252L370 0H429L489 256Q509 340 509 387Q509 444 479 477T392 510Q352 510 309 483T244
430L221 403L242 500H184L68 0ZM547 714L551 668Q497 620 463 620Q444 620 396 644T335 669Q326 669 307 658T272 636L257 625L255 672Q315 722 349 722Q371 722 417 698T474 673Q482 673 500 683T533 704L547 714Z" />
<glyph unicode="&#xf2;" glyph-name="ograve" horiz-adv-x="494" d="M345 509Q513 509 513 344Q513 196 443 93T258 -10Q94 -10 94 148Q94 297 165 403T345 509ZM258 43Q344 43 398 131T452 345Q452 396 425 426T345 457Q262 457 208 365T154 148Q154 43 258 43ZM284
734L460 640L432 599L255 687L284 734Z" />
<glyph unicode="&#xf3;" glyph-name="oacute" horiz-adv-x="494" d="M345 509Q513 509 513 344Q513 196 443 93T258 -10Q94 -10 94 148Q94 297 165 403T345 509ZM258 43Q344 43 398 131T452 345Q452 396 425 426T345 457Q262 457 208 365T154 148Q154 43 258 43ZM306
601L300 647L518 741L525 688L306 601Z" />
<glyph unicode="&#xf4;" glyph-name="ocircumflex" horiz-adv-x="494" d="M244 590L396 735H437L524 590H462L408 682L311 590H244ZM345 509Q513 509 513 344Q513 196 443 93T258 -10Q94 -10 94 148Q94 297 165 403T345 509ZM258 43Q344 43 398 131T452 345Q452
396 425 426T345 457Q262 457 208 365T154 148Q154 43 258 43Z" />
<glyph unicode="&#xf5;" glyph-name="otilde" horiz-adv-x="494" d="M345 509Q513 509 513 344Q513 196 443 93T258 -10Q94 -10 94 148Q94 297 165 403T345 509ZM258 43Q344 43 398 131T452 345Q452 396 425 426T345 457Q262 457 208 365T154 148Q154 43 258 43ZM534
714L538 668Q484 620 450 620Q430 620 383 644T322 669Q313 669 294 658T259 636L244 625L242 672Q302 722 336 722Q358 722 404 698T461 673Q469 673 487 683T520 704L534 714Z" />
<glyph unicode="&#xf6;" glyph-name="odieresis" horiz-adv-x="494" d="M345 509Q513 509 513 344Q513 196 443 93T258 -10Q94 -10 94 148Q94 297 165 403T345 509ZM258 43Q344 43 398 131T452 345Q452 396 425 426T345 457Q262 457 208 365T154 148Q154 43 258
43ZM271 625L290 707H339L320 625H271ZM450 625L468 707H517L498 625H450Z" />
<glyph unicode="&#xf7;" glyph-name="divide" horiz-adv-x="560" d="M155 263V322H521V263H155ZM266 335V425H410V335H266ZM307 33V126H368V33H307Z" />
<glyph unicode="&#xf8;" glyph-name="oslash" horiz-adv-x="493" d="M346 511Q394 511 432 495L499 604L537 588L465 475Q514 432 514 346Q514 198 444 95T259 -8Q208 -8 172 7L99 -112L61 -96L139 27Q95 66 95 150Q95 299 166 405T346 511ZM259 45Q345 45 399
133T453 347Q453 392 432 421L317 240L203 56Q224 45 259 45ZM173 81L285 258L402 447Q380 459 346 459Q263 459 209 367T155 150Q155 106 173 81Z" />
<glyph unicode="&#xf9;" glyph-name="ugrave" horiz-adv-x="494" d="M286 734L462 640L434 599L257 687L286 734ZM481 500H541L425 0H367L388 97Q385 93 379 86T354 60T316 27T270 2T217 -10Q161 -10 131 23T100 112Q100 160 120 244L180 500H239L180 248Q161
167 161 123Q161 85 180 65T236 44Q269 44 311 75T378 137L404 168L481 500Z" />
<glyph unicode="&#xfa;" glyph-name="uacute" horiz-adv-x="494" d="M481 500H541L425 0H367L388 97Q385 93 379 86T354 60T316 27T270 2T217 -10Q161 -10 131 23T100 112Q100 160 120 244L180 500H239L180 248Q161 167 161 123Q161 85 180 65T236 44Q269 44 311
75T378 137L404 168L481 500ZM319 601L313 647L531 741L538 688L319 601Z" />
<glyph unicode="&#xfb;" glyph-name="ucircumflex" horiz-adv-x="494" d="M225 590L377 735H418L505 590H444L390 682L293 590H225ZM481 500H541L425 0H367L388 97Q385 93 379 86T354 60T316 27T270 2T217 -10Q161 -10 131 23T100 112Q100 160 120 244L180 500H239L180
248Q161 167 161 123Q161 85 180 65T236 44Q269 44 311 75T378 137L404 168L481 500Z" />
<glyph unicode="&#xfc;" glyph-name="udieresis" horiz-adv-x="494" d="M256 625L275 707H331L312 625H256ZM442 625L460 707H516L496 625H442ZM481 500H541L425 0H367L388 97Q385 93 379 86T354 60T316 27T270 2T217 -10Q161 -10 131 23T100 112Q100 160 120
244L180 500H239L180 248Q161 167 161 123Q161 85 180 65T236 44Q269 44 311 75T378 137L404 168L481 500Z" />
<glyph unicode="&#xfd;" glyph-name="yacute" horiz-adv-x="452" d="M142 500H201L215 52H249L478 500H541L167 -224H106L224 0H159L142 500ZM293 601L287 647L505 741L512 688L293 601Z" />
<glyph unicode="&#xfe;" glyph-name="thorn" horiz-adv-x="480" d="M382 509Q431 509 461 485T499 421T506 341T492 259Q454 119 393 55T228 -10Q205 -10 180 -8T139 -4T124 0L71 -223H15L238 720H295L229 446Q316 509 382 509ZM214 384L137 57L238 47Q315 47
359 97T434 259Q442 288 444 319T442 381T418 432T365 452Q334 452 296 434T236 400L214 384Z" />
<glyph unicode="&#xff;" glyph-name="ydieresis" horiz-adv-x="452" d="M235 625L254 707H310L291 625H235ZM421 625L439 707H495L475 625H421ZM142 500H201L215 52H249L478 500H541L167 -224H106L224 0H159L142 500Z" />
</font>
</defs>
</svg>
